<!-- Created with Inkscape (http://www.inkscape.org/)
      With Manual Edits -->

<svg
   width="83mm"
   height="73mm"
   viewBox="0 0 83 73"
   version="1.1"
   xmlns="http://www.w3.org/2000/svg"
   style="--color:#912727;">
    <path
       style="fill:var(--color)"
       d="M 129.43448,274.00074 77.800819,273.55618 39.410063,204.97594 1.0193084,136.39571 3.3320592,132.47307 C 4.6040722,130.31562 22.280816,100.01738 42.613712,65.143648 L 79.582615,1.7368646 95.153869,1.4565065 c 8.564181,-0.154197 43.732441,-0.010083 78.151671,0.3202528 l 62.58041,0.600611 38.33643,68.4501027 38.33643,68.450107 -39.55014,67.79062 -39.55014,67.79063 -26.19519,-0.20676 c -14.40736,-0.11373 -49.43035,-0.40682 -77.82886,-0.65133 z m 45.79559,-59.71506 0.24095,-12.37516 H 157.2101 138.94917 v 12.60988 12.60989 l 18.01997,-0.23472 18.01997,-0.23473 z m -2.93364,-40.38211 c 0.51715,-4.99736 4.04368,-109.52817 4.01385,-118.975225 l -0.0185,-5.861919 h -19.05425 c -10.47985,0 -19.20008,0.293096 -19.3783,0.651325 -0.17822,0.358228 0.74988,28.397737 2.06242,62.310019 1.31255,33.91228 2.41229,62.73338 2.44387,64.04688 l 0.0574,2.38819 h 14.70086 14.70086 z"
       transform="scale(0.26458333)" />
</svg>
